:SAMPLES-PER-SECOND 30
:FULLY-SPECIFIED
:DEGREES
478
root  63.9529 38.4495 4.07884 -148.923 -83.2333 142.209
RightUpLeg  -15.7201 1.98268 -8.91368
RightLeg  55.7773 1.34984 1.71699
RightFoot  -2.7069 -0.76604 9.79897
RightToes  -3.31784e-009 0 -3.6325e-017
Spine  9.21106 0.931513 -6.56678
Spine1  5.33496 0.34582 -2.07578
HEad  -1.2656 -13.5248 -2.69014
LeftShoulder1  -0.701742 5.21385 -34.8539
LeftArm  4.63406 9.4931 -39.2654
LeftForeArm  19.142 -21.3088 -4.30922
LeftHand  -0.0368613 8.28482 0.322925
RightShoulder  -1.39104 -7.08104 32.3726
RightArm  28.14 -10.7376 43.7614
RightForeArm  11.7192 14.5902 7.57286
RightHand  -0.154265 4.68393 -2.07767
LeftUpLeg  -2.66643 5.77193 -7.82948
LeftLeg  17.8114 5.29948 0.615716
LeftFoot  -9.35669 -0.0483293 6.03845
LeftToes  1.28511e-009 -3.60458e-011 6.16399e-011
479
root  63.0509 38.5095 4.13768 -148.86 -83.7814 141.827
RightUpLeg  -17.517 2.33276 -8.26307
RightLeg  48.999 1.79814 1.87391
RightFoot  -2.54925 -0.695321 8.80395
RightToes  -3.31784e-009 0 -3.6325e-017
Spine  9.58615 0.491985 -6.56759
Spine1  5.12271 -0.0600522 -1.86637
HEad  -1.16807 -12.8104 -1.97242
LeftShoulder1  -0.711441 5.24653 -34.6147
LeftArm  4.36832 7.86886 -39.2008
LeftForeArm  17.8301 -24.2047 -4.17991
LeftHand  -0.0177927 8.72379 0.966363
RightShoulder  -1.45913 -7.20441 32.9208
RightArm  28.184 -12.2209 43.1867
RightForeArm  11.6845 14.8307 7.41023
RightHand  -0.146641 5.28848 -1.90161
LeftUpLeg  -0.280702 5.74659 -7.56733
LeftLeg  16.883 4.87607 0.341979
LeftFoot  -10.2613 0.0037521 6.17988
LeftToes  1.28511e-009 -3.60458e-011 6.16399e-011
480
root  62.1581 38.5447 4.19701 -148.564 -84.0194 141.243
RightUpLeg  -18.4215 2.73225 -7.80933
RightLeg  40.2152 2.33862 1.85431
RightFoot  -2.62897 -0.725877 9.27543
RightToes  -3.31784e-009 0 -3.6325e-017
Spine  9.26346 0.273632 -6.5074
Spine1  6.08044 -0.14641 -1.81215
HEad  -1.58942 -12.6074 -1.47143
LeftShoulder1  -0.61053 5.04569 -33.4528
LeftArm  2.29559 6.43297 -40.3105
LeftForeArm  19.266 -26.9729 -4.76722
LeftHand  0.0342004 8.89151 2.57762
RightShoulder  -1.42812 -7.12704 32.8994
RightArm  26.9936 -12.9755 43.5367
RightForeArm  12.3815 14.2221 7.57856
RightHand  -0.169218 5.29003 -2.14767
LeftUpLeg  2.14404 5.83748 -7.42673
LeftLeg  15.7286 4.616 0.0370361
LeftFoot  -11.2363 0.0614696 6.35836
LeftToes  1.28511e-009 -3.60458e-011 6.16399e-011
481
root  61.2697 38.5437 4.24326 -142.016 -84.6589 134.766
RightUpLeg  -18.8715 2.4114 -7.56274
RightLeg  30.5002 2.48352 1.37627
RightFoot  -2.19795 -0.739006 9.03449
RightToes  -3.31784e-009 0 -3.6325e-017
Spine  9.6731 0.0398587 -7.12357
Spine1  5.49877 -0.583082 -0.586086
HEad  -1.75897 -13.2294 -1.71998
LeftShoulder1  -0.598863 5.01071 -33.585
LeftArm  1.51657 5.3501 -40.1879
LeftForeArm  20.7944 -29.8768 -5.34982
LeftHand  0.00810387 7.97973 2.18173
RightShoulder  -1.39002 -7.06066 32.5673
RightArm  25.7331 -13.7974 43.7011
RightForeArm  14.2315 13.4324 7.76586
RightHand  -0.148406 4.63974 -2.01008
LeftUpLeg  4.10898 5.89351 -7.48
LeftLeg  14.6494 3.7106 -0.376309
LeftFoot  -12.2011 0.120108 6.20067
LeftToes  1.28511e-009 -3.60458e-011 6.16399e-011
482
root  60.3331 38.5126 4.31861 -136.984 -84.5285 129.9
RightUpLeg  -18.7422 1.30115 -7.2614
RightLeg  20.062 2.56736 0.758249
RightFoot  -2.07024 -0.754597 9.11804
RightToes  -3.31784e-009 0 -3.6325e-017
Spine  9.37457 -0.0144573 -7.25985
Spine1  5.6116 -0.602715 -0.169604
HEad  -1.94528 -13.3779 -1.7084
LeftShoulder1  -0.590099 4.98042 -33.8055
LeftArm  1.11207 4.31915 -39.8715
LeftForeArm  21.5455 -32.4401 -5.92874
LeftHand  0.00469158 7.94189 2.04069
RightShoulder  -1.37298 -7.02701 32.4565
RightArm  25.6676 -14.159 43.5947
RightForeArm  14.6688 13.5175 7.69141
RightHand  -0.174134 3.93728 -2.43848
LeftUpLeg  6.07757 5.76656 -8.00081
LeftLeg  13.4976 3.68667 -0.563462
LeftFoot  -13.0734 0.171798 6.15528
LeftToes  1.28511e-009 -3.60458e-011 6.16399e-011
